<?xml version="1.0" standalone="no"?>
<!DOCTYPE svg PUBLIC "-//W3C//DTD SVG 20010904//EN"
 "http://www.w3.org/TR/2001/REC-SVG-20010904/DTD/svg10.dtd">
<svg version="1.0" xmlns="http://www.w3.org/2000/svg"
 width="320.000000pt" height="320.000000pt" viewBox="0 0 320.000000 320.000000"
 preserveAspectRatio="xMidYMid meet">
<metadata>
Created by potrace 1.14, written by Peter Selinger 2001-2017
</metadata>
<g transform="translate(0.000000,320.000000) scale(0.100000,-0.100000)"
fill="#000000" stroke="none">
<path d="M1384 2329 c-121 -16 -243 -120 -351 -301 l-41 -68 -12 46 c-17 61
-77 151 -131 198 -148 128 -347 146 -532 49 -208 -109 -325 -341 -313 -623 14
-331 206 -474 434 -323 192 128 303 448 217 628 -38 80 -67 105 -123 105 -39
0 -92 -19 -92 -33 0 -7 7 -44 15 -82 17 -83 13 -235 -10 -310 -41 -136 -123
-225 -207 -225 -63 0 -139 98 -155 200 -30 200 48 403 207 533 83 68 204 96
299 68 124 -37 202 -167 203 -338 0 -82 -2 -95 -32 -238 -11 -49 -24 -117 -30
-150 -5 -33 -12 -69 -14 -80 -21 -106 -38 -263 -38 -351 0 -101 42 -165 110
-168 32 -2 90 24 114 51 16 17 16 22 2 63 -9 25 -15 75 -15 112 0 67 24 253
41 318 5 19 12 55 15 80 3 25 10 61 15 80 5 19 11 53 15 75 23 154 75 278 154
367 81 90 182 128 216 81 14 -18 10 -63 -10 -143 -30 -118 -86 -405 -101 -515
-2 -16 -8 -51 -12 -76 -5 -26 -9 -98 -8 -160 1 -97 4 -118 21 -141 48 -64 140
-64 198 0 15 16 16 24 6 48 -20 51 -14 193 16 378 29 182 74 284 165 377 78
80 139 108 187 86 27 -12 32 -45 16 -117 -74 -330 -124 -636 -126 -770 -1
-100 10 -136 51 -173 40 -36 140 -17 175 34 13 18 13 26 2 53 -24 58 -24 119
0 306 5 35 61 320 90 458 3 12 7 34 10 50 3 15 10 49 15 75 17 82 12 157 -14
212 -42 89 -89 111 -189 88 -86 -19 -180 -91 -260 -197 -41 -55 -42 -54 -24
24 30 128 18 230 -34 293 -36 43 -70 55 -135 46z"/>
<path d="M2232 2134 c-30 -20 -52 -66 -52 -105 0 -36 32 -94 61 -109 49 -27
123 -13 157 29 42 52 32 122 -25 171 -39 35 -103 41 -141 14z"/>
<path d="M2212 1824 c-19 -8 -37 -25 -43 -41 -12 -31 -55 -200 -64 -252 -3
-19 -7 -37 -9 -40 -2 -3 -7 -26 -10 -51 -3 -25 -8 -56 -11 -70 -14 -64 -17
-199 -5 -253 21 -102 75 -143 185 -139 146 4 241 154 280 442 3 25 8 52 10 60
2 8 7 29 10 45 3 17 11 50 18 74 l14 45 6 -80 c4 -43 15 -110 26 -148 l19 -69
-68 -89 c-78 -103 -99 -157 -80 -212 13 -40 43 -60 103 -69 46 -7 84 22 90 69
6 38 36 104 48 104 5 0 9 -4 9 -9 0 -18 94 -112 136 -137 108 -63 230 -9 303
133 18 37 21 58 20 180 l0 138 -24 -75 c-46 -150 -88 -220 -144 -241 -20 -8
-30 -5 -58 23 -33 31 -103 144 -103 165 0 9 54 76 131 161 56 63 124 162 138
201 16 50 14 96 -8 122 -15 19 -28 23 -80 23 -71 1 -97 -18 -104 -74 -5 -40
-27 -86 -68 -145 -42 -59 -69 -89 -75 -82 -3 3 -8 56 -11 119 -6 121 -19 163
-56 177 -28 11 -110 5 -137 -9 -43 -23 -105 -207 -145 -431 -8 -45 -45 -142
-70 -184 -41 -70 -124 -94 -126 -36 -2 42 1 59 31 197 16 73 32 145 35 160 2
16 7 40 10 54 20 101 27 138 28 155 2 39 -12 83 -30 90 -32 13 -88 13 -121 -1z"/>
</g>
</svg>
